<?xml version="1.0" encoding="utf-8"?>
<!-- Generator: Adobe Illustrator 24.0.0, SVG Export Plug-In . SVG Version: 6.00 Build 0)  -->
<svg version="1.1" id="Layer_1" xmlns="http://www.w3.org/2000/svg" xmlns:xlink="http://www.w3.org/1999/xlink" x="0px" y="0px"
	 viewBox="0 0 64 64" style="enable-background:new 0 0 64 64;" xml:space="preserve">
<style type="text/css">
	.st0{fill:#52294F;}
</style>
<path class="st0" d="M40.5,8.84c0,0,6.46,2.44,11.84,0.85c6.3-1.86,8.58-5.05,10.23-9.69c-5.56,3.76-9.03,1.1-13.73,2.78
	C42.28,5.13,40.5,8.84,40.5,8.84"/>
<path class="st0" d="M28.88,63.77C12.67,65.6,3.29,56.06,1.75,46.5C-0.57,32,10.23,20.67,18.47,17.55
	c6.46-2.45,14.4-3.71,19.19,1.62c8.79,9.77-1.57,27.32-15.62,26.46c-6.69-0.42-11.08-5.71-10-12.06c1.75-7.47,8.57-8.53,10.12-6.15
	c0.84,1.29,0.12,3.14-1.36,3.48c-2.12,0.61-2.17,3.53-0.1,4.67c4.92,2.67,12.48-4.04,10.17-10.98c-2.81-8.4-17.28-6.71-23.04,5.1
	c-1.48,3.06-1.8,5.63-1.92,7.53L5.9,37.23c-0.06,19.81,23.7,23.04,36.72,9.39c11.2-11.77,6.81-26.74-5.45-33.35
	c0,0,8.94,1.07,14.05,7.99C62.93,37.16,49.33,61.46,28.88,63.77"/>
</svg>
